# xmcd
#
# Track frame offsets:
#	150
#	14668
#	31429
#	43582
#	58190
#	74992
#	90493
#	110010
#	122649
#	134136
#	148134
#	163643
#	178795
#	198265
#	215621
#	230801
#	249392
#	259545
#	277491
#	290817
#	310671
#	324366
#	337651
#
# Disc length: 4728 seconds
#
# Revision: 0
# Processed by: cddbd v1.5.2PL0 Copyright (c) Steve Scherf et al.
# Submitted via: EasyCDDAExtractor 10.2.0.1
#
DISCID=75127617
DTITLE=Various Artist - Country Hits, Vol. 01
DYEAR=2007
DGENRE=Country
TTITLE0=McBride and The Ride - Love's On the Line
TTITLE1=Linda Ronstadt - The Fast One
TTITLE2=Sarah Borges - False Eyelashes
TTITLE3=Billy Ray Cyrus - Put A Little Love In Your Heart
TTITLE4=10 City Run - Carmellita
TTITLE5=Suzy Bogguss - Other Side Of The Hill
TTITLE6=Chris Knight - Rural Route
TTITLE7=McBride and The Ride - Makin' Real Good Time
TTITLE8=Billy Ray Cyrus - Ain't Your Dog No More
TTITLE9=10 City Run - Mama Died
TTITLE10=Billy Ray Cyrus - Achy Breaky Heart
TTITLE11=Miranda Lambert - I Can't Be Bothered
TTITLE12=10 City Run - Memories
TTITLE13=McBride and The Ride - I'm the One
TTITLE14=Suzy Bogguss - Just Like The Weather
TTITLE15=Travis Tritt - I'm Gonna Be Somebody
TTITLE16=10 City Run - In It To Win It
TTITLE17=McBride and The Ride - Trick Rider
TTITLE18=Billy Ray Cyrus - Country Music Has The Blues (Feat. George Jones and L
TTITLE18=oretta Lynn)
TTITLE19=Chris Knight - Old Man
TTITLE20=Suzy Bogguss - Yellow River Road
TTITLE21=McBride and The Ride - Baby I'm Living You Now
TTITLE22=Miranda Lambert - I Wanna Die
EXTD=
EXTT0=
EXTT1=
EXTT2=
EXTT3=
EXTT4=
EXTT5=
EXTT6=
EXTT7=
EXTT8=
EXTT9=
EXTT10=
EXTT11=
EXTT12=
EXTT13=
EXTT14=
EXTT15=
EXTT16=
EXTT17=
EXTT18=
EXTT19=
EXTT20=
EXTT21=
EXTT22=
PLAYORDER=
